<?xml version="1.0" encoding="UTF-8" standalone="no"?>
<!-- Created with Inkscape (http://www.inkscape.org/) -->

<svg
   version="1.0"
   width="696.64172"
   height="1129.1493"
   id="svg2"
   sodipodi:version="0.32"
   inkscape:version="1.1.1 (3bf5ae0d25, 2021-09-20)"
   sodipodi:docname="Ukrainian Blue-Yellow ribbon.svg"
   inkscape:output_extension="org.inkscape.output.svg.inkscape"
   sodipodi:modified="true"
   xmlns:inkscape="http://www.inkscape.org/namespaces/inkscape"
   xmlns:sodipodi="http://sodipodi.sourceforge.net/DTD/sodipodi-0.dtd"
   xmlns:xlink="http://www.w3.org/1999/xlink"
   xmlns="http://www.w3.org/2000/svg"
   xmlns:svg="http://www.w3.org/2000/svg"
   xmlns:rdf="http://www.w3.org/1999/02/22-rdf-syntax-ns#"
   xmlns:cc="http://creativecommons.org/ns#"
   xmlns:dc="http://purl.org/dc/elements/1.1/">
  <metadata
     id="metadata2248">
    <rdf:RDF>
      <cc:Work
         rdf:about="">
        <dc:format>image/svg+xml</dc:format>
        <dc:type
           rdf:resource="http://purl.org/dc/dcmitype/StillImage" />
      </cc:Work>
    </rdf:RDF>
  </metadata>
  <sodipodi:namedview
     inkscape:window-height="1017"
     inkscape:window-width="1920"
     inkscape:pageshadow="2"
     inkscape:pageopacity="0.0"
     guidetolerance="10.0"
     gridtolerance="10.0"
     objecttolerance="10.0"
     borderopacity="1.0"
     bordercolor="#666666"
     pagecolor="#ffffff"
     id="base"
     inkscape:zoom="0.66449955"
     inkscape:cx="283.67213"
     inkscape:cy="566.59181"
     inkscape:window-x="-8"
     inkscape:window-y="-8"
     inkscape:current-layer="svg2"
     showgrid="false"
     showguides="false"
     inkscape:snap-global="false"
     inkscape:pagecheckerboard="0"
     inkscape:window-maximized="1">
    <inkscape:grid
       type="xygrid"
       id="grid3527" />
  </sodipodi:namedview>
  <defs
     id="defs4">
    <inkscape:perspective
       sodipodi:type="inkscape:persp3d"
       inkscape:vp_x="0 : 564.57465 : 1"
       inkscape:vp_y="0 : 1000 : 0"
       inkscape:vp_z="696.64172 : 564.57465 : 1"
       inkscape:persp3d-origin="348.32086 : 376.3831 : 1"
       id="perspective2659" />
    <linearGradient
       id="linearGradient4898">
      <stop
         style="stop-color:#cccccc;stop-opacity:1"
         offset="0"
         id="stop4900" />
      <stop
         style="stop-color:#ffffff;stop-opacity:1"
         offset="1"
         id="stop4902" />
    </linearGradient>
    <linearGradient
       id="linearGradient4882">
      <stop
         style="stop-color:#af0e00;stop-opacity:1"
         offset="0"
         id="stop4884" />
      <stop
         style="stop-color:#e62b1e;stop-opacity:1"
         offset="1"
         id="stop4888" />
    </linearGradient>
    <linearGradient
       id="linearGradient6097">
      <stop
         style="stop-color:#00963e;stop-opacity:1"
         offset="0"
         id="stop6099" />
      <stop
         style="stop-color:#36a835;stop-opacity:1"
         offset="0"
         id="stop2201" />
      <stop
         style="stop-color:#51b130;stop-opacity:1"
         offset="0"
         id="stop2203" />
      <stop
         style="stop-color:#5fb62e;stop-opacity:1"
         offset="0"
         id="stop2205" />
      <stop
         style="stop-color:#6dbb2c;stop-opacity:1"
         offset="1"
         id="stop6101" />
    </linearGradient>
    <linearGradient
       id="linearGradient6081">
      <stop
         style="stop-color:#00963e;stop-opacity:1"
         offset="0"
         id="stop6083" />
      <stop
         style="stop-color:#6fbb2b;stop-opacity:1"
         offset="1"
         id="stop6085" />
    </linearGradient>
    <filter
       id="filter3411">
      <feGaussianBlur
         inkscape:collect="always"
         stdDeviation="30.889208"
         id="feGaussianBlur3413" />
    </filter>
    <filter
       id="filter3164"
       height="1.0612991"
       y="-0.030649563"
       width="1.2442172"
       x="-0.12210854">
      <feGaussianBlur
         id="feGaussianBlur3166"
         stdDeviation="16.066872"
         inkscape:collect="always" />
    </filter>
    <filter
       id="filter5108">
      <feGaussianBlur
         id="feGaussianBlur5110"
         stdDeviation="17.989028"
         inkscape:collect="always" />
    </filter>
    <linearGradient
       x1="740.94452"
       y1="815.05182"
       x2="104.03245"
       y2="105.23806"
       id="linearGradient6087"
       xlink:href="#linearGradient6081"
       gradientUnits="userSpaceOnUse"
       gradientTransform="translate(-72.86541,0.375702)" />
    <linearGradient
       x1="342.9733"
       y1="229.31084"
       x2="288.65543"
       y2="851.1087"
       id="linearGradient6095"
       xlink:href="#linearGradient6097"
       gradientUnits="userSpaceOnUse"
       gradientTransform="translate(-72.86541,0.375702)" />
    <filter
       id="filter9066"
       height="1.2052664"
       y="-0.10263315"
       width="1.1803443"
       x="-0.090172201">
      <feGaussianBlur
         id="feGaussianBlur9068"
         stdDeviation="8.024772"
         inkscape:collect="always" />
    </filter>
    <linearGradient
       x1="225.68648"
       y1="785.40936"
       x2="247.57967"
       y2="109.7567"
       id="linearGradient4836"
       xlink:href="#linearGradient6081"
       gradientUnits="userSpaceOnUse" />
    <linearGradient
       x1="108.06476"
       y1="484.43015"
       x2="265.54065"
       y2="484.43015"
       id="linearGradient4896"
       xlink:href="#linearGradient4898"
       gradientUnits="userSpaceOnUse" />
    <linearGradient
       x1="225.68648"
       y1="785.40936"
       x2="247.57967"
       y2="109.7567"
       id="linearGradient3120"
       xlink:href="#linearGradient6081"
       gradientUnits="userSpaceOnUse"
       gradientTransform="translate(710.4587,32.77693)" />
    <linearGradient
       x1="260.80054"
       y1="852.16058"
       x2="307.81857"
       y2="140.69019"
       id="linearGradient3122"
       xlink:href="#linearGradient4882"
       gradientUnits="userSpaceOnUse"
       gradientTransform="translate(710.4587,34.40499)" />
    <linearGradient
       x1="225.68648"
       y1="785.40936"
       x2="247.57967"
       y2="109.7567"
       id="linearGradient3124"
       xlink:href="#linearGradient4898"
       gradientUnits="userSpaceOnUse"
       gradientTransform="translate(710.4588,32.77693)" />
    <linearGradient
       x1="740.94452"
       y1="815.05182"
       x2="104.03245"
       y2="105.23806"
       id="linearGradient7516"
       xlink:href="#linearGradient6081"
       gradientUnits="userSpaceOnUse"
       gradientTransform="translate(875.0902,-3.099506)" />
    <linearGradient
       x1="694.09991"
       y1="793.44452"
       x2="104.03245"
       y2="105.23806"
       id="linearGradient7518"
       xlink:href="#linearGradient4882"
       gradientUnits="userSpaceOnUse"
       gradientTransform="translate(875.0903,-6.355617)" />
    <linearGradient
       x1="723.03564"
       y1="655.50012"
       x2="104.03245"
       y2="105.23806"
       id="linearGradient7520"
       xlink:href="#linearGradient4898"
       gradientUnits="userSpaceOnUse"
       gradientTransform="translate(875.3797,-2.724491)" />
    <linearGradient
       x1="889.3642"
       y1="315.47586"
       x2="1046.679"
       y2="315.47586"
       id="linearGradient11034"
       xlink:href="#linearGradient4882"
       gradientUnits="userSpaceOnUse" />
    <linearGradient
       x1="872.04303"
       y1="275.55389"
       x2="1016.8468"
       y2="275.55389"
       id="linearGradient11042"
       xlink:href="#linearGradient4898"
       gradientUnits="userSpaceOnUse" />
    <linearGradient
       x1="872.04303"
       y1="275.55389"
       x2="1016.8468"
       y2="275.55389"
       id="linearGradient11049"
       xlink:href="#linearGradient4898"
       gradientUnits="userSpaceOnUse" />
    <linearGradient
       x1="889.3642"
       y1="315.47586"
       x2="1046.679"
       y2="315.47586"
       id="linearGradient11051"
       xlink:href="#linearGradient4882"
       gradientUnits="userSpaceOnUse" />
    <linearGradient
       x1="225.68648"
       y1="785.40936"
       x2="247.57967"
       y2="109.7567"
       id="linearGradient11080"
       xlink:href="#linearGradient6081"
       gradientUnits="userSpaceOnUse"
       gradientTransform="translate(667.7983,38.29602)" />
    <linearGradient
       x1="740.94452"
       y1="815.05182"
       x2="104.03245"
       y2="105.23806"
       id="linearGradient11082"
       xlink:href="#linearGradient6081"
       gradientUnits="userSpaceOnUse"
       gradientTransform="translate(594.9329,38.67172)" />
    <linearGradient
       x1="872.04303"
       y1="275.55389"
       x2="1016.8468"
       y2="275.55389"
       id="linearGradient11084"
       xlink:href="#linearGradient4898"
       gradientUnits="userSpaceOnUse" />
    <linearGradient
       x1="889.3642"
       y1="315.47586"
       x2="1046.679"
       y2="315.47586"
       id="linearGradient11086"
       xlink:href="#linearGradient4882"
       gradientUnits="userSpaceOnUse" />
    <linearGradient
       x1="225.68648"
       y1="785.40936"
       x2="247.57967"
       y2="109.7567"
       id="linearGradient11088"
       xlink:href="#linearGradient6081"
       gradientUnits="userSpaceOnUse"
       gradientTransform="translate(710.4587,32.77693)" />
    <linearGradient
       x1="260.80054"
       y1="852.16058"
       x2="307.81857"
       y2="140.69019"
       id="linearGradient11090"
       xlink:href="#linearGradient4882"
       gradientUnits="userSpaceOnUse"
       gradientTransform="translate(710.4587,34.40499)" />
    <linearGradient
       x1="225.68648"
       y1="785.40936"
       x2="247.57967"
       y2="109.7567"
       id="linearGradient11092"
       xlink:href="#linearGradient4898"
       gradientUnits="userSpaceOnUse"
       gradientTransform="translate(710.4588,32.77693)" />
    <linearGradient
       x1="740.94452"
       y1="815.05182"
       x2="104.03245"
       y2="105.23806"
       id="linearGradient11094"
       xlink:href="#linearGradient6081"
       gradientUnits="userSpaceOnUse"
       gradientTransform="translate(875.0902,-3.099506)" />
    <linearGradient
       x1="694.09991"
       y1="793.44452"
       x2="104.03245"
       y2="105.23806"
       id="linearGradient11096"
       xlink:href="#linearGradient4882"
       gradientUnits="userSpaceOnUse"
       gradientTransform="translate(875.0903,-6.355617)" />
    <linearGradient
       x1="723.03564"
       y1="655.50012"
       x2="104.03245"
       y2="105.23806"
       id="linearGradient11098"
       xlink:href="#linearGradient4898"
       gradientUnits="userSpaceOnUse"
       gradientTransform="translate(875.3797,-2.724491)" />
    <linearGradient
       x1="740.94452"
       y1="815.05182"
       x2="104.03245"
       y2="105.23806"
       id="linearGradient11118"
       xlink:href="#linearGradient6081"
       gradientUnits="userSpaceOnUse"
       gradientTransform="translate(875.0902,-3.099506)" />
    <linearGradient
       x1="694.09991"
       y1="793.44452"
       x2="104.03245"
       y2="105.23806"
       id="linearGradient11120"
       xlink:href="#linearGradient4882"
       gradientUnits="userSpaceOnUse"
       gradientTransform="translate(875.0903,-6.355617)" />
    <linearGradient
       x1="723.03564"
       y1="655.50012"
       x2="104.03245"
       y2="105.23806"
       id="linearGradient11122"
       xlink:href="#linearGradient4898"
       gradientUnits="userSpaceOnUse"
       gradientTransform="translate(875.3797,-2.724491)" />
    <linearGradient
       x1="225.68648"
       y1="785.40936"
       x2="247.57967"
       y2="109.7567"
       id="linearGradient11124"
       xlink:href="#linearGradient6081"
       gradientUnits="userSpaceOnUse"
       gradientTransform="translate(710.4587,32.77693)" />
    <linearGradient
       x1="260.80054"
       y1="852.16058"
       x2="307.81857"
       y2="140.69019"
       id="linearGradient11126"
       xlink:href="#linearGradient4882"
       gradientUnits="userSpaceOnUse"
       gradientTransform="translate(710.4587,34.40499)" />
    <linearGradient
       x1="225.68648"
       y1="785.40936"
       x2="247.57967"
       y2="109.7567"
       id="linearGradient11128"
       xlink:href="#linearGradient4898"
       gradientUnits="userSpaceOnUse"
       gradientTransform="translate(710.4588,32.77693)" />
    <linearGradient
       x1="872.04303"
       y1="275.55389"
       x2="1016.8468"
       y2="275.55389"
       id="linearGradient11130"
       xlink:href="#linearGradient4898"
       gradientUnits="userSpaceOnUse" />
    <linearGradient
       x1="889.3642"
       y1="315.47586"
       x2="1046.679"
       y2="315.47586"
       id="linearGradient11132"
       xlink:href="#linearGradient4882"
       gradientUnits="userSpaceOnUse" />
    <linearGradient
       x1="872.04303"
       y1="275.55389"
       x2="1016.8468"
       y2="275.55389"
       id="linearGradient11151"
       xlink:href="#linearGradient4898"
       gradientUnits="userSpaceOnUse" />
    <linearGradient
       x1="889.3642"
       y1="315.47586"
       x2="1046.679"
       y2="315.47586"
       id="linearGradient11153"
       xlink:href="#linearGradient4882"
       gradientUnits="userSpaceOnUse" />
    <linearGradient
       x1="225.68648"
       y1="785.40936"
       x2="247.57967"
       y2="109.7567"
       id="linearGradient11155"
       xlink:href="#linearGradient6081"
       gradientUnits="userSpaceOnUse"
       gradientTransform="translate(710.4587,32.77693)" />
    <linearGradient
       x1="260.80054"
       y1="852.16058"
       x2="307.81857"
       y2="140.69019"
       id="linearGradient11157"
       xlink:href="#linearGradient4882"
       gradientUnits="userSpaceOnUse"
       gradientTransform="translate(710.4587,34.40499)" />
    <linearGradient
       x1="225.68648"
       y1="785.40936"
       x2="247.57967"
       y2="109.7567"
       id="linearGradient11159"
       xlink:href="#linearGradient4898"
       gradientUnits="userSpaceOnUse"
       gradientTransform="translate(710.4588,32.77693)" />
    <linearGradient
       x1="740.94452"
       y1="815.05182"
       x2="104.03245"
       y2="105.23806"
       id="linearGradient11161"
       xlink:href="#linearGradient6081"
       gradientUnits="userSpaceOnUse"
       gradientTransform="translate(875.0902,-3.099506)" />
    <linearGradient
       x1="694.09991"
       y1="793.44452"
       x2="104.03245"
       y2="105.23806"
       id="linearGradient11163"
       xlink:href="#linearGradient4882"
       gradientUnits="userSpaceOnUse"
       gradientTransform="translate(875.0903,-6.355617)" />
    <linearGradient
       x1="723.03564"
       y1="655.50012"
       x2="104.03245"
       y2="105.23806"
       id="linearGradient11165"
       xlink:href="#linearGradient4898"
       gradientUnits="userSpaceOnUse"
       gradientTransform="translate(875.3797,-2.724491)" />
    <filter
       id="filter4525"
       x="-0.04821709"
       y="-0.040712324"
       width="1.0964342"
       height="1.0814246">
      <feGaussianBlur
         id="feGaussianBlur4527"
         stdDeviation="13.216716"
         inkscape:collect="always" />
    </filter>
    <filter
       id="filter4529"
       height="1.0574448"
       y="-0.028722408"
       width="1.2747254"
       x="-0.13736271">
      <feGaussianBlur
         id="feGaussianBlur4531"
         stdDeviation="13.216716"
         inkscape:collect="always" />
    </filter>
    <filter
       id="filter4533"
       height="1.3960317"
       y="-0.19801586"
       width="1.3541646"
       x="-0.17708231">
      <feGaussianBlur
         id="feGaussianBlur4535"
         stdDeviation="13.216716"
         inkscape:collect="always" />
    </filter>
    <linearGradient
       inkscape:collect="always"
       xlink:href="#linearGradient4882"
       id="linearGradient2706"
       gradientUnits="userSpaceOnUse"
       gradientTransform="matrix(0.9680175,0,0,0.9680175,-62.892226,0.9646224)"
       x1="694.09991"
       y1="793.44452"
       x2="104.03245"
       y2="105.23806" />
    <linearGradient
       inkscape:collect="always"
       xlink:href="#linearGradient4882"
       id="linearGradient2721"
       gradientUnits="userSpaceOnUse"
       gradientTransform="matrix(0.9680175,0,0,0.9680175,4.4775246,17.71017)"
       x1="260.80054"
       y1="852.16058"
       x2="307.81857"
       y2="140.69019" />
    <linearGradient
       inkscape:collect="always"
       xlink:href="#linearGradient4882"
       id="linearGradient2731"
       gradientUnits="userSpaceOnUse"
       x1="889.3642"
       y1="315.47586"
       x2="1046.679"
       y2="315.47586"
       gradientTransform="matrix(0.9680175,0,0,0.9680175,-801.41195,-165.17079)" />
  </defs>
  <g
     id="g5125">
    <path
       id="path11070"
       style="opacity:0.28070176;fill-opacity:1;fill-rule:nonzero;stroke:none;stroke-width:1.09709907;stroke-linecap:butt;stroke-linejoin:miter;marker:none;marker-start:none;marker-mid:none;marker-end:none;stroke-miterlimit:4;stroke-dasharray:none;stroke-dashoffset:0;stroke-opacity:1;visibility:visible;display:inline;overflow:visible;filter:url(#filter4529)"
       d="M 130.1939,10.88107 C 143.2149,23.53943 185.2991,45.91721 181.3096,78.583865 C 285.6093,256.63078 206.8823,580.76138 140.6602,807.7712 C 140.6602,807.7712 114.9992,898.3825 121.6214,916.1872 C 128.2436,933.9919 125.0751,932.2478 176.3972,973.79198 C 221.8716,1010.6027 276.9224,1081.1237 285.2001,1115.2494 L 350.23,507.79847 C 350.23,507.79847 352.5034,254.08163 350.8479,203.635 C 349.1923,153.18838 332.6368,89.440315 248.2037,55.31466 C 208.6286,39.31943 158.488,16.54141 130.1939,10.88107 z"
       transform="matrix(0.9680175,0,0,0.9680175,4.4244814,19.761593)" />
    <path
       id="path11068"
       style="opacity:0.28070176;fill-opacity:1;fill-rule:nonzero;stroke:none;stroke-width:1;stroke-linecap:butt;stroke-linejoin:miter;marker:none;marker-start:none;marker-mid:none;marker-end:none;stroke-miterlimit:4;stroke-dashoffset:0;stroke-opacity:1;visibility:visible;display:inline;overflow:visible;filter:url(#filter4533)"
       d="M 214.0245,95.643965 C 214.0245,95.643965 184.427,49.48289 145.1195,20.4139 C 117.4453,14.23647 108.9316,18.09288 78.1144,40.23837 C 35.44859,70.898425 34.89809,82.761425 34.89809,91.332855 C 51.25299,154.68275 70.0993,168.35229 83.6742,177.95534 C 83.6742,177.95534 82.7426,177.5315 82.7426,177.5315 C 82.7426,177.5315 94.0245,101.35825 214.0245,95.643965 z"
       transform="matrix(0.9680175,0,0,0.9680175,4.4244814,19.761593)" />
    <path
       d="M 210.94424,113.42506 C 210.94424,113.42506 205.58384,83.716373 167.53349,54.575339 C 140.74444,48.595469 116.45843,52.328551 86.626957,73.765763 C 45.325716,103.44524 43.757624,126.31529 43.757624,134.61258 C 59.589454,195.93639 71.622202,183.808 84.762942,193.10392 C 84.762942,193.10392 83.861137,192.69363 83.861137,192.69363 C 83.861137,192.69363 94.782214,118.95659 210.94424,113.42506 z"
       style="fill-opacity:1;fill-rule:nonzero;stroke:#000000;stroke-width:0.96801752;stroke-linecap:butt;stroke-linejoin:miter;marker:none;marker-start:none;marker-mid:none;marker-end:none;stroke-miterlimit:4;stroke-dashoffset:0;stroke-opacity:1;visibility:visible;display:inline;overflow:visible"
       id="path7526" />
    <path
       d="M 189.86832,85.068075 C 189.86832,85.068075 173.50713,55.987861 163.4377,52.890824 C 143.30433,49.470828 131.83797,44.435057 85.858733,71.124441 C 39.063228,98.287642 43.772803,121.4224 43.772803,129.71969 C 43.733482,138.31033 58.717674,169.73363 60.595018,175.44575 C 60.595018,175.44575 89.577544,88.039744 189.86832,85.068075 z"
       style="fill-opacity:1;fill-rule:nonzero;stroke:#000000;stroke-width:0.96801752;stroke-linecap:butt;stroke-linejoin:miter;marker:none;marker-start:none;marker-mid:none;marker-end:none;stroke-miterlimit:4;stroke-dashoffset:0;stroke-opacity:1;visibility:visible;display:inline;overflow:visible;fill:#005bbb"
       id="path7522"
       sodipodi:nodetypes="ccsccc" />
    <path
       d="M 211.30753,113.01692 C 211.30753,113.01692 203.60435,92.547079 196.13909,83.395644 C 167.30224,84.583392 139.12229,81.284192 109.2908,102.7214 C 67.989559,132.40087 60.960792,156.54252 53.793175,167.91166 C 59.897532,179.06215 76.593349,189.03155 85.126336,192.69577 C 85.126336,192.69577 84.224531,192.28549 84.224531,192.28549 C 84.224531,192.28549 95.145608,118.54844 211.30753,113.01692 z"
       style="fill-opacity:1;fill-rule:nonzero;stroke:#000000;stroke-width:0.96801752;stroke-linecap:butt;stroke-linejoin:miter;marker:none;marker-start:none;marker-mid:none;marker-end:none;stroke-miterlimit:4;stroke-dashoffset:0;stroke-opacity:1;visibility:visible;display:inline;overflow:visible;fill:#ffd500"
       id="path7524"
       sodipodi:nodetypes="ccscccc" />
    <path
       d="M 164.20042,53.526446 C 175.07687,65.324469 187.79054,87.718271 199.55975,115.30396 C 271.57966,284.11056 185.62713,559.49139 130.31184,771.07236 C 130.31184,771.07236 108.87718,847.13087 114.4087,863.72546 C 119.94023,880.32004 138.60914,899.68039 181.47849,938.40109 C 219.46326,972.70988 261.68565,997.86507 268.60006,1029.6713 L 326.68108,512.47339 C 326.68108,512.47339 333.59554,276.00055 332.21263,228.98256 C 330.82972,181.96456 317.00091,118.35198 246.47394,86.545701 C 213.41684,71.637589 187.83455,58.802064 164.20042,53.526446 z"
       style="fill-opacity:1;fill-rule:nonzero;stroke:#000000;stroke-width:0.96801752;stroke-linecap:butt;stroke-linejoin:miter;marker:none;marker-start:none;marker-mid:none;marker-end:none;stroke-miterlimit:4;stroke-dasharray:none;stroke-dashoffset:0;stroke-opacity:1;visibility:visible;display:inline;overflow:visible;fill:#ffd500"
       id="path3093" />
    <path
       d="M 164.20042,53.526442 C 175.07687,65.324475 187.79054,87.718261 199.55975,115.30396 C 271.57966,284.11056 185.62713,559.49139 130.31184,771.07236 C 130.31184,771.07236 108.87718,847.13087 114.4087,863.72546 C 119.94023,880.32004 143.87308,904.04073 186.74243,942.76143 C 196.27876,895.29954 232.25343,693.81222 259.26811,503.78168 C 272.77545,408.7664 284.5425,281.30629 276.44593,201.87964 C 272.39764,162.16631 246.36678,98.010633 238.08836,87.601302 C 229.80993,77.19197 236.15515,83.182568 216.97543,73.252906 C 197.7957,63.323244 178.47598,57.465132 164.20042,53.526442 z"
       style="fill-opacity:1;fill-rule:nonzero;stroke:#000000;stroke-width:0.96801752;stroke-linecap:butt;stroke-linejoin:miter;marker:none;marker-start:none;marker-mid:none;marker-end:none;stroke-miterlimit:4;stroke-dasharray:none;stroke-dashoffset:0;stroke-opacity:1;visibility:visible;display:inline;overflow:visible;fill:#005bbb"
       id="path1343"
       sodipodi:nodetypes="cscscssczc" />
    <path
       id="path11076"
       style="opacity:0.28070176;fill-opacity:1;fill-rule:nonzero;stroke:none;stroke-width:1.06678772;stroke-linecap:butt;stroke-linejoin:miter;marker:none;marker-start:none;marker-mid:none;marker-end:none;stroke-miterlimit:4;stroke-dasharray:none;stroke-dashoffset:0;stroke-opacity:1;visibility:visible;display:inline;overflow:visible;filter:url(#filter4525)"
       d="M 77.6522,136.17202 C 77.6522,136.17202 54.2277,103.5116 34.86099,70.064168 C 34.86099,79.50815 28.95869,181.81791 28.95869,181.81791 C 28.95869,181.81791 23.05649,254.22175 67.3233,310.88561 C 111.59,367.54948 266.5236,580.03897 563.1107,792.52843 C 563.1107,792.52843 635.413,847.61833 656.0709,849.19233 C 656.0709,849.19233 692.9598,683.92273 685.582,624.11087 C 685.582,624.11087 599.9997,591.05695 344.7281,378.56745 C 89.4566,166.07795 77.6522,136.17202 77.6522,136.17202 z"
       transform="matrix(0.9680175,0,0,0.9680175,4.4244814,19.761593)" />
    <path
       d="M 83.693212,179.26347 C 83.693212,179.26347 61.740028,150.56867 43.589603,121.18242 C 43.589603,129.47972 38.05806,219.36705 38.05806,219.36705 C 38.05806,219.36705 32.526518,282.97964 74.013037,332.76339 C 115.49956,382.54715 260.70218,569.23623 538.66144,755.92533 C 538.66144,755.92533 606.42266,804.32621 625.78301,805.70909 C 625.78301,805.70909 660.35508,660.50646 653.44063,607.95693 C 653.44063,607.95693 573.2335,578.91641 333.99485,392.22732 C 94.756297,205.53824 83.693212,179.26347 83.693212,179.26347 z"
       style="fill-opacity:1;fill-rule:nonzero;stroke:#000000;stroke-width:0.96801752;stroke-linecap:butt;stroke-linejoin:miter;marker:none;marker-start:none;marker-mid:none;marker-end:none;stroke-miterlimit:4;stroke-dasharray:none;stroke-dashoffset:0;stroke-opacity:1;visibility:visible;display:inline;overflow:visible;fill:#ffd500"
       id="path3116" />
    <path
       d="M 83.973454,179.62657 C 83.973454,179.62657 62.206643,150.77737 44.05614,121.39114 C 44.05614,129.68843 38.955656,206.70795 38.955656,206.70795 C 38.955656,206.70795 57.042069,243.57058 123.5925,309.51502 C 190.14293,375.45946 294.1533,456.54406 335.15823,490.22381 C 376.51184,524.18997 421.51285,561.52018 472.90035,596.78682 C 524.28785,632.05344 590.53361,680.00087 645.03512,710.67189 C 645.03512,710.67189 657.40638,635.78785 654.45035,608.11967 C 654.45035,608.11967 573.51375,579.27951 334.27509,392.59043 C 95.036538,205.90133 83.973454,179.62657 83.973454,179.62657 z"
       style="fill-opacity:1;fill-rule:nonzero;stroke:#000000;stroke-width:0.96801752;stroke-linecap:butt;stroke-linejoin:miter;marker:none;marker-start:none;marker-mid:none;marker-end:none;stroke-miterlimit:4;stroke-dasharray:none;stroke-dashoffset:0;stroke-opacity:1;visibility:visible;display:inline;overflow:visible;fill:#005bbb"
       id="path3130"
       sodipodi:nodetypes="cccssscccc" />
  </g>
</svg>
